# xmcd
#
# Track frame offsets:
#	150
#	20337
#	42495
#	63410
#	81612
#	100177
#	119457
#	138570
#	157650
#	176095
#	196767
#	217657
#
# Disc length: 3110 seconds
#
# Revision: 1
# Processed by: cddbd v1.5PL3 Copyright (c) Steve Scherf et al.
# Submitted via: CDex 1.50Beta5
#
DISCID=9f0c240c
DTITLE=山川豊 - シングル・コレクション Disc 2
DYEAR=2000
DGENRE=Folk
TTITLE0=夜桜
TTITLE1=きずな
TTITLE2=途中下車
TTITLE3=面影本線
TTITLE4=酒は男の子守歌
TTITLE5=酒場のろくでなし
TTITLE6=アメリカ橋
TTITLE7=男のららばい
TTITLE8=雪舞橋
TTITLE9=ふるさと
TTITLE10=愛に溺れて
TTITLE11=終電 何時?
EXTD=
EXTT0=
EXTT1=
EXTT2=
EXTT3=
EXTT4=
EXTT5=
EXTT6=
EXTT7=
EXTT8=
EXTT9=
EXTT10=
EXTT11=
PLAYORDER=
